<svg id="emcLph4XN3i1" xmlns="http://www.w3.org/2000/svg" xmlns:xlink="http://www.w3.org/1999/xlink" viewBox="0 0 300 300" shape-rendering="geometricPrecision" text-rendering="geometricPrecision"><path d="M143.49882,30.17311v35.0718c-10.76938.81451-20.97838,3.63581-30.25399,8.0909L95.70543,42.95669c14.48381-7.36109,30.66162-11.86896,47.79338-12.78358h.00001ZM79.84706,101.99026L49.46817,84.451C58.57743,70.50868,70.50868,58.57743,84.451,49.46817l17.53926,30.37889c-8.67664,5.94935-16.19386,13.46656-22.1432,22.1432ZM65.24491,143.49882h-35.0718c.91462-17.13176,5.4225-33.30957,12.78358-47.79338l30.37912,17.5394c-4.45509,9.27561-7.27639,19.4846-8.0909,30.25399v-.00001Zm8.09091,43.25635L42.9567,204.29457c-7.36109-14.48381-11.86896-30.66162-12.78358-47.79338h35.0718c.81451,10.76938,3.63581,20.97838,8.0909,30.25399v-.00001Zm28.65444,33.39777L84.451,250.53183c-13.94232-9.10926-25.87357-21.04051-34.98283-34.98283l30.37889-17.53926c5.94935,8.67664,13.46656,16.19386,22.1432,22.1432Zm41.50856,14.60215v35.0718c-17.13176-.91462-33.30957-5.4225-47.79338-12.78358l17.5394-30.37912c9.27561,4.45509,19.4846,7.27639,30.25399,8.0909h-.00001Zm13.00236,35.0718v-35.0718c10.76938-.81451,20.97838-3.63581,30.25399-8.0909l17.5394,30.37912c-14.48381,7.36109-30.66162,11.86896-47.79338,12.78358h-.00001Zm63.65176-71.81715L250.53183,215.549c-9.10926,13.94232-21.04051,25.87357-34.98283,34.98283l-17.53926-30.37889c8.67664-5.94935,16.19386-13.46656,22.1432-22.1432Zm14.60215-41.50856h35.0718c-.91462,17.13176-5.4225,33.30957-12.78358,47.79338l-30.37912-17.5394c4.45509-9.27561,7.27639-19.4846,8.0909-30.25399v.00001Zm-8.09091-43.25635l30.37912-17.5394c7.36109,14.48381,11.86896,30.66162,12.78358,47.79338h-35.0718c-.81451-10.76938-3.63581-20.97838-8.0909-30.25399v.00001ZM198.00974,79.84706L215.549,49.46817c13.94232,9.10926,25.87357,21.04051,34.98283,34.98283l-30.37889,17.53926c-5.94935-8.67664-13.46656-16.19386-22.1432-22.1432ZM156.50118,65.24491v-35.0718c17.13176.91462,33.30957,5.4225,47.79338,12.78358l-17.5394,30.37912c-9.27561-4.45509-19.4846-7.27639-30.25399-8.0909h.00001Z" fill="#fff" stroke-width="0"/></svg>
